HIERARCHY
ROOT Hips
{
	OFFSET 0.000000 35.082581 0.000000
	CHANNELS 6 Xposition Yposition Zposition Xrotation Yrotation Zrotation 
	JOINT Spine
	{
		OFFSET 0.000000 6.876099 0.125700
		CHANNELS 3 Xrotation Yrotation Zrotation
		JOINT Spine1
		{
			OFFSET 0.000000 5.730043 0.104720
			CHANNELS 3 Xrotation Yrotation Zrotation
			JOINT Spine1_split
			{
				OFFSET 0.000000 5.730043 0.104720
				CHANNELS 3 Xrotation Yrotation Zrotation
				JOINT Spine2
				{
					OFFSET 0.000000 5.730043 0.104720
					CHANNELS 3 Xrotation Yrotation Zrotation
					JOINT Neck
					{
						OFFSET 0.000000 10.314075 0.188496
						CHANNELS 3 Xrotation Yrotation Zrotation
						JOINT Head
						{
							OFFSET 0.000000 7.643700 -2.377400
							CHANNELS 3 Xrotation Yrotation Zrotation
							JOINT HeadTop_End
							{
								OFFSET 0.000000 43.788605 -13.619600
								CHANNELS 3 Xrotation Yrotation Zrotation
								End Site
								{
									OFFSET 0.000000 0.000000 0.000000
								}
							}
						}
					}
					JOINT LeftShoulder
					{
						OFFSET 2.196100 4.412489 0.087492
						CHANNELS 3 Xrotation Yrotation Zrotation
						JOINT LeftShoulder_split
						{
							OFFSET 2.196100 4.412489 0.087492
							CHANNELS 3 Xrotation Yrotation Zrotation
							JOINT LeftArm
							{
								OFFSET 8.771219 -2.981674 -0.026999
								CHANNELS 3 Xrotation Yrotation Zrotation
								JOINT LeftForeArm
								{
									OFFSET 8.512804 0.000000 -0.000000
									CHANNELS 3 Xrotation Yrotation Zrotation
									JOINT LeftHand
									{
										OFFSET 18.484802 0.000000 -0.000000
										CHANNELS 3 Xrotation Yrotation Zrotation
										JOINT LeftHandThumb1
										{
											OFFSET 2.499420 -1.158070 2.653252
											CHANNELS 3 Xrotation Yrotation Zrotation
											JOINT LeftHandThumb2
											{
												OFFSET 2.370079 -1.368366 1.368366
												CHANNELS 3 Xrotation Yrotation Zrotation
												JOINT LeftHandThumb3
												{
													OFFSET 2.676727 -1.545410 1.545409
													CHANNELS 3 Xrotation Yrotation Zrotation
													JOINT LeftHandThumb4
													{
														OFFSET 1.692226 -0.977005 0.977007
														CHANNELS 3 Xrotation Yrotation Zrotation
														End Site
														{
															OFFSET 0.000000 0.000000 0.000000
														}
													}
												}
											}
										}
										JOINT LeftHandIndex1
										{
											OFFSET 7.924831 -0.457527 2.345128
											CHANNELS 3 Xrotation Yrotation Zrotation
											JOINT LeftHandIndex2
											{
												OFFSET 3.643303 0.000000 0.000000
												CHANNELS 3 Xrotation Yrotation Zrotation
												JOINT LeftHandIndex3
												{
													OFFSET 3.810799 0.000000 0.000000
													CHANNELS 3 Xrotation Yrotation Zrotation
													JOINT LeftHandIndex4
													{
														OFFSET 2.403702 0.000000 0.000000
														CHANNELS 3 Xrotation Yrotation Zrotation
														End Site
														{
															OFFSET 0.000000 0.000000 0.000000
														}
													}
												}
											}
										}
										JOINT LeftHandMiddle1
										{
											OFFSET 8.563995 0.000000 -0.000000
											CHANNELS 3 Xrotation Yrotation Zrotation
											JOINT LeftHandMiddle2
											{
												OFFSET 3.861618 0.000000 0.000000
												CHANNELS 3 Xrotation Yrotation Zrotation
												JOINT LeftHandMiddle3
												{
													OFFSET 3.701603 0.000000 0.000000
													CHANNELS 3 Xrotation Yrotation Zrotation
													JOINT LeftHandMiddle4
													{
														OFFSET 2.322544 0.000000 0.000000
														CHANNELS 3 Xrotation Yrotation Zrotation
														End Site
														{
															OFFSET 0.000000 0.000000 0.000000
														}
													}
												}
											}
										}
										JOINT LeftHandRing1
										{
											OFFSET 8.426460 -0.424637 -3.286992
											CHANNELS 3 Xrotation Yrotation Zrotation
											JOINT LeftHandRing2
											{
												OFFSET 3.126408 0.000000 0.000000
												CHANNELS 3 Xrotation Yrotation Zrotation
												JOINT LeftHandRing3
												{
													OFFSET 3.085026 0.000000 0.000000
													CHANNELS 3 Xrotation Yrotation Zrotation
													JOINT LeftHandRing4
													{
														OFFSET 1.644005 0.000000 0.000000
														CHANNELS 3 Xrotation Yrotation Zrotation
														End Site
														{
															OFFSET 0.000000 0.000000 0.000000
														}
													}
												}
											}
										}
									}
								}
							}
						}
					}
					JOINT RightShoulder
					{
						OFFSET -2.196100 4.412496 0.070690
						CHANNELS 3 Xrotation Yrotation Zrotation
						JOINT RightShoulder_split
						{
							OFFSET -2.196100 4.412496 0.070690
							CHANNELS 3 Xrotation Yrotation Zrotation
							JOINT RightArm
							{
								OFFSET -8.771282 -2.981682 -0.094208
								CHANNELS 3 Xrotation Yrotation Zrotation
								JOINT RightForeArm
								{
									OFFSET -8.494598 0.000000 0.000000
									CHANNELS 3 Xrotation Yrotation Zrotation
									JOINT RightHand
									{
										OFFSET -18.483803 0.000000 0.000001
										CHANNELS 3 Xrotation Yrotation Zrotation
										JOINT RightHandThumb1
										{
											OFFSET -2.527351 -1.008072 2.575253
											CHANNELS 3 Xrotation Yrotation Zrotation
											JOINT RightHandThumb2
											{
												OFFSET -2.321518 -1.340328 1.340329
												CHANNELS 3 Xrotation Yrotation Zrotation
												JOINT RightHandThumb3
												{
													OFFSET -2.657753 -1.534454 1.534455
													CHANNELS 3 Xrotation Yrotation Zrotation
													JOINT RightHandThumb4
													{
														OFFSET -1.807510 -1.043568 1.043567
														CHANNELS 3 Xrotation Yrotation Zrotation
														End Site
														{
															OFFSET 0.000000 0.000000 0.000000
														}
													}
												}
											}
										}
										JOINT RightHandIndex1
										{
											OFFSET -8.811420 0.015533 2.887987
											CHANNELS 3 Xrotation Yrotation Zrotation
											JOINT RightHandIndex2
											{
												OFFSET -3.537502 0.000000 0.000000
												CHANNELS 3 Xrotation Yrotation Zrotation
												JOINT RightHandIndex3
												{
													OFFSET -3.356201 0.000000 0.000000
													CHANNELS 3 Xrotation Yrotation Zrotation
													JOINT RightHandIndex4
													{
														OFFSET -1.933098 0.000000 0.000000
														CHANNELS 3 Xrotation Yrotation Zrotation
														End Site
														{
															OFFSET 0.000000 0.000000 0.000000
														}
													}
												}
											}
										}
										JOINT RightHandMiddle1
										{
											OFFSET -8.178135 0.000000 0.000000
											CHANNELS 3 Xrotation Yrotation Zrotation
											JOINT RightHandMiddle2
											{
												OFFSET -3.901302 0.000000 0.000000
												CHANNELS 3 Xrotation Yrotation Zrotation
												JOINT RightHandMiddle3
												{
													OFFSET -3.909599 0.000000 0.000000
													CHANNELS 3 Xrotation Yrotation Zrotation
													JOINT RightHandMiddle4
													{
														OFFSET -2.376003 0.000000 0.000000
														CHANNELS 3 Xrotation Yrotation Zrotation
														End Site
														{
															OFFSET 0.000000 0.000000 0.000000
														}
													}
												}
											}
										}
										JOINT RightHandRing1
										{
											OFFSET -7.559013 0.014137 -2.865403
											CHANNELS 3 Xrotation Yrotation Zrotation
											JOINT RightHandRing2
											{
												OFFSET -3.449306 0.000000 0.000000
												CHANNELS 3 Xrotation Yrotation Zrotation
												JOINT RightHandRing3
												{
													OFFSET -3.362106 0.000000 0.000000
													CHANNELS 3 Xrotation Yrotation Zrotation
													JOINT RightHandRing4
													{
														OFFSET -2.076401 0.000000 0.000000
														CHANNELS 3 Xrotation Yrotation Zrotation
														End Site
														{
															OFFSET 0.000000 0.000000 0.000000
														}
													}
												}
											}
										}
									}
								}
							}
						}
					}
				}
			}
		}
	}
	JOINT LeftUpLeg
	{
		OFFSET 10.205400 -3.823500 0.155100
		CHANNELS 3 Xrotation Yrotation Zrotation
		JOINT LeftLeg
		{
			OFFSET 0.708757 -12.982077 0.567790
			CHANNELS 3 Xrotation Yrotation Zrotation
			JOINT LeftFoot
			{
				OFFSET -0.708756 -10.717838 -2.184338
				CHANNELS 3 Xrotation Yrotation Zrotation
				JOINT LeftToeBase
				{
					OFFSET 0.108149 -7.191104 7.560241
					CHANNELS 3 Xrotation Yrotation Zrotation
					JOINT LeftToe_End
					{
						OFFSET 0.070230 0.081724 4.490308
						CHANNELS 3 Xrotation Yrotation Zrotation
						End Site
						{
							OFFSET 0.000000 0.000000 0.000000
						}
					}
				}
			}
		}
	}
	JOINT RightUpLeg
	{
		OFFSET -10.205400 -3.823500 0.005500
		CHANNELS 3 Xrotation Yrotation Zrotation
		JOINT RightLeg
		{
			OFFSET -0.708756 -12.982134 0.610632
			CHANNELS 3 Xrotation Yrotation Zrotation
			JOINT RightFoot
			{
				OFFSET 0.708754 -10.717769 -1.945823
				CHANNELS 3 Xrotation Yrotation Zrotation
				JOINT RightToeBase
				{
					OFFSET -0.108140 -7.191069 7.372968
					CHANNELS 3 Xrotation Yrotation Zrotation
					JOINT RightToe_End
					{
						OFFSET -0.070227 0.081735 4.479403
						CHANNELS 3 Xrotation Yrotation Zrotation
						End Site
						{
							OFFSET 0.000000 0.000000 0.000000
						}
					}
				}
			}
		}
	}
}
MOTION
Frames: 5
Frame Time: 0.016667
-0.356574 32.305706 -0.427388 22.723104 0.376562 -5.442046 9.019564 2.325725 -0.908736 -0.486225 1.376179 -0.738722 0.000000 0.000000 0.000000 -0.484346 1.393123 -0.752147 -12.183786 0.616445 0.895267 -13.200939 5.313709 -4.930407 -0.000000 0.000001 -0.000001 0.800070 -1.053363 -19.763485 0.000000 0.000000 0.000000 13.552892 -1.213095 -48.473033 0.000046 -65.396855 0.000050 -23.458490 12.668274 -19.629211 74.823998 -40.508117 61.030302 25.114394 4.278465 -82.291833 42.097280 21.884838 -34.007256 0.000000 -0.000004 0.000001 5.834360 7.878506 -78.812883 5.407290 5.834276 -85.642827 1.801541 4.226824 -46.153562 -0.000000 -0.000000 0.000002 4.932088 8.202280 -90.163387 4.700892 5.737289 -78.644082 3.117992 5.175479 -62.112108 0.000000 -0.000000 0.000001 4.402397 8.246202 -91.663181 5.862432 5.851046 -90.111492 1.899115 4.318181 -47.463360 0.000002 -0.000001 0.000000 0.203549 7.873828 19.585079 0.000000 0.000000 0.000000 11.893552 -9.449218 48.231613 -0.000014 63.146998 0.000015 -2.319515 -16.349547 7.973160 47.809743 35.835380 -5.333822 34.631334 -33.014498 35.094605 42.386320 -17.521889 37.753628 0.000001 0.000000 0.000003 5.182524 -7.113261 78.876254 4.422138 -4.651250 87.104057 2.569878 -4.164143 63.347177 -0.000000 0.000002 -0.000003 7.506155 -6.722294 94.665049 4.366854 -4.648121 86.421926 2.874981 -4.303380 67.478287 0.000000 -0.000004 -0.000001 5.682800 -6.829417 102.073878 3.638049 -4.544528 77.346223 2.856139 -4.295533 67.226663 -0.000001 0.000001 -0.000001 -62.308619 3.068319 -5.486289 80.665852 -0.285251 4.332644 2.295373 1.371761 6.731953 -30.225035 -1.421948 2.406392 0.000002 0.000000 0.000000 -26.738659 -11.658211 1.800530 27.993512 -4.120232 1.791291 -23.066411 -1.375229 3.813995 -2.186159 -0.000000 -0.000001 -0.000000 -0.000000 -0.000000 
-0.606138 32.115520 0.535783 23.033705 0.406298 -5.312391 8.796202 2.523330 -1.198229 -0.496565 1.450543 -0.731986 0.000000 0.000000 0.000000 -0.476993 1.478103 -0.752149 -12.234361 0.523661 0.936673 -13.473426 5.168244 -4.687935 0.000000 0.000001 0.000000 0.809844 -1.055531 -19.698245 0.000000 0.000000 0.000000 13.400041 -1.470143 -48.429364 0.000016 -65.609295 0.000004 -23.708582 13.002247 -19.426747 74.823998 -40.508110 61.030295 25.166956 4.373171 -82.354412 42.157051 21.874362 -34.059469 0.000001 0.000000 -0.000000 5.840178 7.879080 -78.844972 5.407290 5.834283 -85.642861 1.800395 4.225727 -46.137955 0.000002 0.000000 -0.000003 4.933128 8.202448 -90.173687 4.700465 5.737210 -78.639806 3.117214 5.175079 -62.103509 -0.000000 0.000000 -0.000000 4.398816 8.245283 -91.628443 5.862140 5.851065 -90.108643 1.899774 4.318776 -47.472014 -0.000001 -0.000001 -0.000000 0.179710 8.056699 19.469475 0.000000 0.000000 0.000000 11.883975 -9.750496 48.141028 0.000039 64.191463 -0.000025 -2.283732 -16.744900 8.133042 47.809743 35.835380 -5.333819 34.631330 -33.014495 35.094605 42.252237 -17.581457 37.606537 -0.000000 -0.000000 0.000001 5.188554 -7.114442 78.876507 4.422136 -4.651259 87.104036 2.569307 -4.163854 63.339131 -0.000002 0.000001 -0.000003 7.510156 -6.722912 94.643220 4.366600 -4.648106 86.418791 2.874747 -4.303272 67.474947 0.000000 -0.000001 -0.000002 5.680127 -6.829989 102.040342 3.638057 -4.544540 77.346251 2.856131 -4.295526 67.226656 0.000000 0.000002 0.000002 -67.137249 4.228668 -6.127269 80.548086 -0.991943 4.389096 1.645959 2.062628 6.505158 -24.292794 -1.332132 3.009950 0.000002 0.000000 0.000000 -24.471943 -11.657495 2.438764 27.998906 -3.978900 1.698109 -25.704387 -1.492757 3.707436 -2.186160 0.000005 0.000004 0.000000 -0.000002 -0.000000 
-0.854865 31.896458 1.498574 23.345699 0.421964 -5.191553 8.573676 2.735138 -1.480368 -0.507242 1.525120 -0.724556 0.000000 0.000000 0.000000 -0.469531 1.563698 -0.748854 -12.284906 0.430357 0.978022 -13.746419 5.022103 -4.445270 0.000001 0.000000 0.000000 0.829629 -1.055385 -19.576787 0.000000 0.000000 0.000000 13.303895 -1.693174 -48.524348 0.000053 -65.794304 0.000044 -24.000866 13.236753 -19.197100 74.823998 -40.508107 61.030302 25.309076 4.629914 -82.525624 42.319944 21.845240 -34.201756 0.000001 -0.000000 -0.000002 5.855884 7.880577 -78.934399 5.407292 5.834261 -85.642840 1.797000 4.222479 -46.092032 0.000000 0.000001 -0.000000 4.936081 8.202941 -90.202668 4.699355 5.736993 -78.628742 3.115128 5.173975 -62.080423 0.000000 -0.000000 -0.000001 4.389596 8.242920 -91.538830 5.861333 5.851064 -90.100707 1.901639 4.320487 -47.496828 0.000000 0.000001 -0.000001 0.162757 8.201816 19.240206 0.000000 0.000000 0.000000 12.013097 -10.084068 48.107423 -0.000008 65.513242 -0.000021 -2.194437 -17.182514 8.317066 47.809736 35.835380 -5.333820 34.631330 -33.014495 35.094605 41.903368 -17.731356 37.225508 -0.000003 -0.000006 -0.000001 5.206646 -7.117968 78.877272 4.422141 -4.651240 87.104064 2.567696 -4.163049 63.317083 -0.000001 -0.000003 -0.000000 7.521386 -6.724526 94.584555 4.365930 -4.648076 86.410663 2.874103 -4.303006 67.466327 0.000000 -0.000003 -0.000002 5.673267 -6.831435 101.953844 3.638499 -4.544618 77.351804 2.856115 -4.295527 67.226642 -0.000000 0.000004 -0.000001 -71.639375 5.404083 -6.684179 79.792654 -1.780298 4.434450 1.292242 2.827119 6.299603 -17.321093 -1.061927 3.680439 0.000001 0.000000 0.000000 -22.060430 -11.788924 3.135535 27.734526 -3.731086 1.486825 -28.242288 -1.589809 3.587887 -2.186158 0.000011 0.000000 0.000000 0.000001 -0.000000 
-1.103503 31.631546 2.474178 23.683456 0.411170 -5.058139 8.345012 2.955359 -1.767950 -0.520801 1.601804 -0.710191 0.000000 0.000000 0.000000 -0.460735 1.655480 -0.739871 -12.336270 0.331890 1.018788 -14.027062 4.875327 -4.190920 0.000000 -0.000001 0.000000 0.857954 -1.055093 -19.402703 0.000000 0.000000 0.000000 13.266401 -1.833209 -48.691640 0.000074 -65.913832 0.000069 -24.290244 13.359665 -18.989939 74.823992 -40.508114 61.030295 25.517174 5.007347 -82.781688 42.561098 21.800419 -34.412546 -0.000002 0.000003 0.000002 5.878699 7.882559 -79.070901 5.407289 5.834291 -85.642834 1.791489 4.217171 -46.017010 0.000001 -0.000001 0.000002 4.940634 8.203698 -90.247235 4.697846 5.736681 -78.613606 3.112117 5.172387 -62.047071 0.000001 -0.000000 0.000002 4.377006 8.239666 -91.416338 5.860108 5.851070 -90.088740 1.904597 4.323171 -47.535839 -0.000001 -0.000001 0.000001 0.154743 8.315200 18.934657 0.000000 0.000000 0.000000 12.291673 -10.409300 48.204374 0.000033 66.924475 -0.000032 -2.085129 -17.592974 8.432656 47.809736 35.835380 -5.333823 34.631327 -33.014491 35.094601 41.419374 -17.927529 36.700737 -0.000000 -0.000000 -0.000000 5.237245 -7.123794 78.883979 4.422145 -4.651259 87.104057 2.565320 -4.161849 63.284209 0.000002 0.000001 -0.000002 7.538616 -6.726836 94.499636 4.365040 -4.648021 86.399591 2.873214 -4.302638 67.454470 -0.000001 0.000004 -0.000002 5.663848 -6.833402 101.835600 3.639160 -4.544774 77.360198 2.856403 -4.295640 67.230160 0.000001 0.000002 -0.000003 -75.866190 6.491317 -7.157984 78.384555 -2.637635 4.423538 1.183252 3.736779 6.039474 -9.388460 -0.554359 4.349438 -0.000001 0.000000 -0.000000 -19.591873 -12.007515 3.835462 27.403848 -3.363880 1.207514 -30.795335 -1.679529 3.471848 -2.186154 0.000013 0.000002 -0.000000 0.000001 -0.000000 
-1.352707 31.284348 3.485551 24.098656 0.350176 -4.868715 8.095123 3.170258 -2.085963 -0.542829 1.684606 -0.675693 0.000000 0.000000 0.000000 -0.447993 1.765198 -0.714382 -12.390381 0.218419 1.057884 -14.330316 4.724050 -3.900794 -0.000001 -0.000001 -0.000000 0.892454 -1.054612 -19.190897 0.000000 0.000000 0.000000 13.312123 -1.847652 -48.806951 0.000052 -65.962197 0.000065 -24.536305 13.414706 -18.850467 74.823998 -40.508114 61.030295 25.767558 5.464283 -83.098452 42.855783 21.742922 -34.670307 -0.000000 0.000003 -0.000002 5.905972 7.884653 -79.244189 5.407290 5.834291 -85.642834 1.783936 4.209891 -45.914225 0.000000 -0.000001 0.000003 4.946494 8.204673 -90.304465 4.696200 5.736351 -78.597125 3.108558 5.170502 -62.007435 0.000002 0.000001 -0.000003 4.363303 8.236092 -91.282869 5.858590 5.851076 -90.073885 1.908461 4.326707 -47.587294 -0.000000 -0.000001 0.000001 0.153508 8.439851 18.609318 0.000000 0.000000 0.000000 12.697655 -10.683118 48.523085 0.000005 68.139388 0.000023 -2.018129 -17.890919 8.368100 47.809736 35.835380 -5.333822 34.631327 -33.014495 35.094605 40.883194 -18.129492 36.124133 -0.000002 -0.000000 -0.000000 5.280336 -7.131928 78.896328 4.422148 -4.651264 87.104036 2.562367 -4.160374 63.243618 0.000000 -0.000000 -0.000002 7.560675 -6.729533 94.398931 4.364058 -4.647941 86.387488 2.872234 -4.302235 67.441595 0.000001 -0.000002 -0.000002 5.653598 -6.835532 101.706728 3.639986 -4.544965 77.370600 2.856819 -4.295809 67.235747 0.000002 0.000003 -0.000001 -79.952200 7.306343 -7.537497 76.231372 -3.528431 4.264565 1.281396 4.962808 5.601065 -3.990385 -0.010907 0.842108 0.000002 0.000000 0.000000 -17.254482 -12.277671 4.432554 27.438620 -2.835542 0.923265 -33.641451 -1.780710 3.363762 -2.186157 0.000003 0.000003 -0.000001 0.000000 0.000000 
